# xmcd CD database file
#
# Track frame offsets:
#	150
#	7491
#	14346
#	21157
#	28168
#	34988
#	41993
#	48957
#	56131
#	62891
#	70182
#	77411
#	84108
#	91046
#	98140
#	105545
#	112983
#	120325
#	127544
#	134947
#	142152
#	149489
#	156533
#	163729
#	170719
#	177868
#	185150
#	192248
#	199697
#	207021
#	214025
#	220736
#	227940
#	235356
#	242301
#	249516
#	256612
#	263345
#	270336
#	277130
#	284495
#	291153
#	298613
#	305821
#	312738
#	320181
#	327210
#	334624
#	341883
#	348662
#
# Disc length: 4740 seconds
#
# Revision: 1
# Processed by: cddbd v1.5.2PL0 Copyright (c) Steve Scherf et al.
# Submitted via: CDex 1.70beta2
#
DISCID=09128232
DTITLE=Various Artist - Best Blue Note RVG 100 [CD2]
DYEAR=2008
DGENRE=Jazz
TTITLE0=Horace Silver - The Preacher
TTITLE1=Lee Morgan - Whisper Not
TTITLE2=Hank Mobley - Mighty Moe And Joe
TTITLE3=Bud Powell - Buster Rides Again
TTITLE4=Donald Byrd - Lover Come Back To Me
TTITLE5=Freddie Hubbard - Hub Cap
TTITLE6=Grant Green - Exodus
TTITLE7=Wayne Shorter - Night Dreamer
TTITLE8=Ornette Coleman - Faces And Places
TTITLE9=Ornette Coleman - Morning Song
TTITLE10=Art Blakey - Minor's Holiday
TTITLE11=Bud Powell - Avila and Tequila
TTITLE12=Lee Morgan - Roccus
TTITLE13=Horace Silver - No Smokin'
TTITLE14=Duke Pearson - Black Coffee
TTITLE15=Ike Quebec - It Might As Well Be Spring
TTITLE16=Kenny Dorham - Una Mas(One More Time)
TTITLE17=Hank Mobley - No Room For Squares
TTITLE18=Grant Green - DJango
TTITLE19=Jackie McLean - Sweet Love Of Mine
TTITLE20=Clifford Brown - Hymn Of The Orient
TTITLE21=Lee Morgan - Just One Of Those Things
TTITLE22=Sonny Clark - Cool Struttin'
TTITLE23=Horace Silver - Blowin' The Blues Away
TTITLE24=Freddie Hubbard - Open Sesame
TTITLE25=Art Blakey - So Tired
TTITLE26=Jackie McLean - Appointment In Ghana
TTITLE27=Grant Green - Alone Together
TTITLE28=Kenny Burrell - Chittlins Con Carne
TTITLE29=Herbie Hancock - I Have A Dream
TTITLE30=Art Blakey - Split Kick
TTITLE31=Art Blakey - Now's The Time
TTITLE32=Kenny Dorham - Autumn In New York
TTITLE33=Kenny Dorham - Mexico City
TTITLE34=John Coltrane - Blue Train
TTITLE35=Sonny Clark - I Didn't Know What Time It Was
TTITLE36="Baby Face" Willette - Swingin' At Sugar Ray's
TTITLE37=Hank Mobley - Workout
TTITLE38=Lee Morgan - Sidewinder,The
TTITLE39=Herbie Hancock - Maiden Voyage
TTITLE40=Lee Morgan - Candy
TTITLE41=Cannonball Adderley - Autumn Leaves
TTITLE42=Art Blakey - Moanin'
TTITLE43=Bud Powell - Cleopatra's Dream
TTITLE44=Tina Brooks - True Blue
TTITLE45=Dexter Gordon - Society Red
TTITLE46=Grant Green - Tico Tico
TTITLE47=Ike Quebec - Loie
TTITLE48=Horace Silver - Song For My Father
TTITLE49=Herbie Hancock - Speak Like A Child
EXTD=YEAR: 2008
EXTT0=
EXTT1=
EXTT2=
EXTT3=
EXTT4=
EXTT5=
EXTT6=
EXTT7=
EXTT8=
EXTT9=
EXTT10=
EXTT11=
EXTT12=
EXTT13=
EXTT14=
EXTT15=
EXTT16=
EXTT17=
EXTT18=
EXTT19=
EXTT20=
EXTT21=
EXTT22=
EXTT23=
EXTT24=
EXTT25=
EXTT26=
EXTT27=
EXTT28=
EXTT29=
EXTT30=
EXTT31=
EXTT32=
EXTT33=
EXTT34=
EXTT35=
EXTT36=
EXTT37=
EXTT38=
EXTT39=
EXTT40=
EXTT41=
EXTT42=
EXTT43=
EXTT44=
EXTT45=
EXTT46=
EXTT47=
EXTT48=
EXTT49=
PLAYORDER=
